<svg width="20" height="16" viewBox="0 0 20 16" fill="none" xmlns="http://www.w3.org/2000/svg">
<path fill-rule="evenodd" clip-rule="evenodd" d="M20 7.6316C20 8.21292 19.5287 8.68424 18.9474 8.68424H3.58916L8.35917 13.4672C8.7697 13.879 8.76891 14.5453 8.35733 14.9558C8.1518 15.1608 7.88285 15.2632 7.61391 15.2632C7.34417 15.2632 7.07417 15.1601 6.86864 14.954L0.307304 8.37503C-0.102435 7.96397 -0.102435 7.29924 0.307304 6.88818L6.86864 0.309212C7.27917 -0.102368 7.94549 -0.103157 8.35733 0.30737C8.76891 0.717898 8.7697 1.38422 8.35917 1.79606L3.58916 6.57897H18.9474C19.5287 6.57897 20 7.05029 20 7.6316Z" fill="currentColor"/>
</svg>
