<svg width="20" height="17" viewBox="0 0 20 17" fill="none" xmlns="http://www.w3.org/2000/svg">
<path fill-rule="evenodd" clip-rule="evenodd" d="M20 16C20 15.4477 19.2442 15 18.3117 15H1.68831C0.755844 15 0 15.4477 0 16C0 16.5523 0.755844 17 1.68831 17H18.3117C19.2442 17 20 16.5523 20 16ZM20 9C20 8.44769 19.2442 8 18.3117 8H1.68831C0.755844 8 0 8.44769 0 9C0 9.55231 0.755844 10 1.68831 10H18.3117C19.2442 10 20 9.55231 20 9ZM18.3117 2H1.68831C0.755844 2 0 1.55231 0 1C0 0.447692 0.755844 0 1.68831 0H18.3117C19.2442 0 20 0.447692 20 1C20 1.55231 19.2442 2 18.3117 2Z" fill="currentColor"/>
</svg>
