<svg width="20" height="20" viewBox="0 0 20 20" fill="none" xmlns="http://www.w3.org/2000/svg">
<path d="M1.70711 0.292893C1.31658 -0.0976311 0.683418 -0.0976311 0.292893 0.292893C-0.0976311 0.683418 -0.0976311 1.31658 0.292893 1.70711L8.42462 9.83883L0.292893 17.9706C-0.0976311 18.3611 -0.0976311 18.9943 0.292893 19.3848C0.683418 19.7753 1.31658 19.7753 1.70711 19.3848L9.83883 11.253L17.9706 19.3848C18.3611 19.7753 18.9943 19.7753 19.3848 19.3848C19.7753 18.9943 19.7753 18.3611 19.3848 17.9706L11.253 9.83883L19.3848 1.70711C19.7753 1.31658 19.7753 0.683418 19.3848 0.292893C18.9943 -0.0976311 18.3611 -0.0976311 17.9706 0.292893L9.83883 8.42462L1.70711 0.292893Z" fill="white"/>
</svg>
