<svg width="20" height="20" viewBox="0 0 20 20" fill="none" xmlns="http://www.w3.org/2000/svg">
<path fill-rule="evenodd" clip-rule="evenodd" d="M13.7124 2.6087C13.7124 3.08892 14.1017 3.47827 14.582 3.47827L19.1304 3.47827C19.6107 3.47827 20 3.08892 20 2.6087C20 2.12848 19.6107 1.73914 19.1304 1.73914L14.582 1.73914C14.1017 1.73914 13.7124 2.12848 13.7124 2.6087ZM6.24414 2.6087C6.24414 2.12848 5.85458 1.73914 5.37458 1.73914L0.869576 1.73914C0.389359 1.73914 9.53674e-06 2.12848 9.53674e-06 2.6087C9.53674e-06 3.08892 0.389359 3.47827 0.869576 3.47827L5.37458 3.47827C5.85458 3.47827 6.24414 3.08892 6.24414 2.6087ZM9.41174 10C9.41174 10.4802 9.80109 10.8696 10.2813 10.8696H19.1304C19.6107 10.8696 20 10.4802 20 10C20 9.51978 19.6107 9.13043 19.1304 9.13043H10.2813C9.80109 9.13043 9.41174 9.51978 9.41174 10ZM2.23914 10C2.23914 9.51978 1.84979 9.13043 1.36957 9.13043H0.86957C0.389353 9.13043 5.72205e-06 9.51978 5.72205e-06 10C5.72205e-06 10.4802 0.389353 10.8696 0.86957 10.8696H1.36957C1.84979 10.8696 2.23914 10.4802 2.23914 10ZM13.7757 18.2609C14.2594 18.2609 14.6528 17.8772 14.6528 17.4054C14.6528 16.9337 14.2594 16.55 13.7757 16.55C13.292 16.55 12.8985 16.9337 12.8985 17.4054C12.8985 17.8772 13.292 18.2609 13.7757 18.2609ZM13.7757 20C12.3331 20 11.1594 18.8361 11.1594 17.4054C11.1594 15.9748 12.3331 14.8109 13.7757 14.8109C15.2183 14.8109 16.392 15.9748 16.392 17.4054C16.392 18.8361 15.2183 20 13.7757 20ZM5.72305 10.8554C6.20674 10.8554 6.60022 10.4717 6.60022 10C6.60022 9.52826 6.20674 9.14456 5.72305 9.14456C5.23935 9.14456 4.84587 9.52826 4.84587 10C4.84587 10.4717 5.23935 10.8554 5.72305 10.8554ZM5.72305 12.5946C4.28044 12.5946 3.10675 11.4306 3.10675 9.99999C3.10675 8.56934 4.28044 7.40543 5.72305 7.40543C7.16566 7.40543 8.33936 8.56934 8.33936 9.99999C8.33936 11.4306 7.16566 12.5946 5.72305 12.5946ZM9.99999 3.45001C10.4835 3.45001 10.8772 3.06631 10.8772 2.59457C10.8772 2.12283 10.4835 1.73914 9.99999 1.73914C9.5163 1.73914 9.12282 2.12283 9.12282 2.59457C9.12282 3.06631 9.5163 3.45001 9.99999 3.45001ZM10 5.18913C8.55739 5.18913 7.38369 4.02522 7.38369 2.59457C7.38369 1.16391 8.55739 0 10 0C11.4426 0 12.6163 1.16391 12.6163 2.59457C12.6163 4.02522 11.4426 5.18913 10 5.18913ZM17.5167 17.3913C17.5167 17.8715 17.9061 18.2609 18.3863 18.2609H19.1304C19.6107 18.2609 20 17.8715 20 17.3913C20 16.9111 19.6107 16.5217 19.1304 16.5217H18.3863C17.9061 16.5217 17.5167 16.9111 17.5167 17.3913ZM9.38108 18.2609H0.869553C0.389336 18.2609 -1.14441e-05 17.8715 -1.14441e-05 17.3913C-1.14441e-05 16.9111 0.389336 16.5217 0.869553 16.5217H9.38108C9.86129 16.5217 10.2506 16.9111 10.2506 17.3913C10.2506 17.8715 9.86129 18.2609 9.38108 18.2609Z" fill="currentColor"/>
</svg>
