<svg width="20" height="18" viewBox="0 0 20 18" fill="none" xmlns="http://www.w3.org/2000/svg">
<path fill-rule="evenodd" clip-rule="evenodd" d="M13.0595 15.4546H18.1818V11.6527H13.0595V15.4546ZM18.7209 17.2727H12.5209C11.8155 17.2727 11.2414 16.7018 11.2414 16V11.1073C11.2414 10.4057 11.8155 9.83453 12.5209 9.83453H18.7207C19.4261 9.83453 20 10.4057 20 11.1073V16.0002C20 16.7018 19.4261 17.2727 18.7209 17.2727ZM1.81818 15.4546H6.94045V11.6527H1.81818V15.4546ZM7.47932 17.2727H1.27932C0.573864 17.2727 0 16.7018 0 16V11.1073C0 10.4057 0.573864 9.83453 1.27932 9.83453H7.47909C8.18455 9.83453 8.75864 10.4057 8.75864 11.1073V16.0002C8.75864 16.7018 8.18477 17.2727 7.47932 17.2727ZM13.0595 5.61978H18.1818V1.81796H13.0595V5.61978ZM18.7209 7.43795H12.5209C11.8155 7.43795 11.2414 6.86705 11.2414 6.16523V1.27227C11.2414 0.570682 11.8152 0 12.5202 0H18.7207C19.4261 0 20 0.570909 20 1.27273V6.16545C20 6.86727 19.4261 7.43795 18.7209 7.43795ZM1.81818 5.61978H6.94045V1.81796H1.81818V5.61978ZM7.47932 7.43795H1.27932C0.573864 7.43795 0 6.86705 0 6.16523V1.27227C0 0.570682 0.573636 0 1.27886 0H7.47909C8.18455 0 8.75864 0.570909 8.75864 1.27273V6.16545C8.75864 6.86727 8.18477 7.43795 7.47932 7.43795Z" fill="currentColor"/>
</svg>
