<svg width="20" height="19" viewBox="0 0 20 19" fill="none" xmlns="http://www.w3.org/2000/svg">
<path fill-rule="evenodd" clip-rule="evenodd" d="M15.5972 7.47442C15.7716 7.64884 15.8693 7.88838 15.8693 8.13257C15.8693 8.37675 15.7716 8.61861 15.5972 8.79071C15.4251 8.96513 15.1855 9.0628 14.939 9.0628C14.6948 9.0628 14.4553 8.96513 14.2834 8.79071C14.109 8.61861 14.0088 8.37908 14.0088 8.13257C14.0088 7.88838 14.109 7.64884 14.2834 7.47442C14.4553 7.30233 14.6948 7.20233 14.939 7.20233C15.1855 7.20233 15.4251 7.30233 15.5972 7.47442ZM16.7202 6.12304C16.75 6.57164 16.4104 6.95932 15.9618 6.98885C15.9437 6.99001 15.9255 6.99071 15.9074 6.99071C15.4823 6.99071 15.1244 6.66071 15.096 6.23025C15.0088 4.91117 14.1467 4.69466 13.9746 4.66466C13.5293 4.60373 13.2246 4.1942 13.2855 3.74885C13.3467 3.30326 13.7639 2.99419 14.2093 3.05396C15.0148 3.16443 16.5767 3.94792 16.7202 6.12304ZM16.9474 8.81653C13.9334 12.1975 11.1881 14.8342 9.99995 15.9444C8.81251 14.8351 6.06948 12.201 3.0525 8.81653C1.83482 7.45071 1.5318 5.7849 2.22134 4.24629C2.86064 2.81931 4.23064 1.86047 5.63018 1.86047C8.40553 1.86047 9.03367 3.93629 9.09786 4.17955C9.20065 4.58978 9.56902 4.88373 9.99274 4.88373H10.0009C10.4234 4.88373 10.7944 4.59001 10.9018 4.18071C10.9639 3.94373 11.5895 1.86303 14.37 1.86303C15.7693 1.86303 17.1393 2.82048 17.7788 4.24745C18.4681 5.78606 18.1653 7.45071 16.9474 8.81653ZM19.4762 3.48535C18.5276 1.36814 16.5232 0 14.37 0C12.2181 0 10.8223 0.946513 9.99995 1.97186C9.17762 0.946513 7.78181 0 5.63017 0C3.47692 0 1.47249 1.36814 0.523655 3.48535C-0.464253 5.69001 -0.0379735 8.14559 1.66389 10.0547C5.74041 14.6277 9.34297 17.8698 9.37879 17.9019C9.55553 18.0605 9.77785 18.1396 9.99995 18.1396C10.2223 18.1396 10.4444 18.0605 10.6211 17.9019C10.6569 17.8698 14.2595 14.6277 18.336 10.0547C20.0379 8.14559 20.4644 5.69001 19.4762 3.48535Z" fill="black"/>
</svg>
