<svg width="20" height="20" viewBox="0 0 20 20" fill="none" xmlns="http://www.w3.org/2000/svg">
<path fill-rule="evenodd" clip-rule="evenodd" d="M14.371 8.94024C14.5382 9.10751 14.6355 9.34024 14.6355 9.57751C14.6355 9.81705 14.5382 10.0498 14.371 10.2171C14.2039 10.3866 13.9687 10.4814 13.7316 10.4814C13.4944 10.4814 13.2616 10.3866 13.0921 10.2171C12.9248 10.0498 12.8278 9.81705 12.8278 9.57751C12.8278 9.34024 12.9248 9.10751 13.0921 8.94024C13.2616 8.77069 13.4944 8.67365 13.7316 8.67365C13.9687 8.67365 14.2039 8.77069 14.371 8.94024ZM16.0362 7.20591C15.9832 7.60341 15.6437 7.8925 15.2532 7.8925C15.2185 7.8925 15.1832 7.89023 15.1478 7.88546C14.7148 7.82773 14.4107 7.43 14.4685 6.99682C14.6262 5.81318 13.3069 5.19455 13.2505 5.16887C12.8551 4.98773 12.678 4.52023 12.8566 4.12364C13.0353 3.72705 13.4982 3.54864 13.896 3.72455C13.9964 3.76909 16.3514 4.84227 16.0362 7.20591ZM12.5091 12.4386C9.62574 12.4386 7.28028 10.0541 7.28028 7.12318C7.28028 4.1925 9.62574 1.80795 12.5091 1.80795C15.3921 1.80795 17.7378 4.1925 17.7378 7.12318C17.7378 10.0541 15.3921 12.4386 12.5091 12.4386ZM12.5091 0C8.62914 0 5.47255 3.19545 5.47255 7.12318C5.47255 8.77364 6.03119 10.2934 6.96528 11.5025L0.292781 18.2691C-0.101537 18.6691 -0.0969913 19.313 0.303009 19.7073C0.500963 19.9027 0.758918 20 1.01687 20C1.27937 20 1.54187 19.8991 1.74096 19.6973L8.42505 12.9186C9.57755 13.7532 10.9871 14.2466 12.5091 14.2466C16.3891 14.2466 19.5455 11.0511 19.5455 7.12318C19.5455 3.19545 16.3891 0 12.5091 0Z" fill="black"/>
</svg>
