<svg width="16" height="20" viewBox="0 0 16 20" fill="none" xmlns="http://www.w3.org/2000/svg">
<path fill-rule="evenodd" clip-rule="evenodd" d="M13.7738 18.2222H1.77778V6.88889H3.11111V8.42911C3.11111 8.92 3.50911 9.318 4 9.318C4.49089 9.318 4.88889 8.92 4.88889 8.42911V6.88889H10.6667V8.42911C10.6667 8.92 11.0647 9.318 11.5556 9.318C12.0464 9.318 12.4444 8.92 12.4444 8.42911V6.88889H13.7776L13.7738 18.2222ZM4.88889 4.70533C4.88889 3.0911 6.22178 1.77777 7.73044 1.77777H7.82511C9.334 1.77777 10.6667 3.0911 10.6667 4.70533V5.1111H4.88889V4.70533ZM15.2953 5.38867C15.1287 5.222 14.9024 5.11111 14.6667 5.11111H12.4444V4.70533C12.4444 2.11089 10.3142 0 7.82511 0H7.73044C5.24133 0 3.11111 2.11089 3.11111 4.70533V5.11111H0.888889C0.398 5.11111 0 5.54356 0 6.03444V19.1111C0 19.602 0.398 20 0.888889 20H14.6624C15.1531 20 15.5511 19.6022 15.5513 19.1113L15.5556 6.02622C15.5558 5.79044 15.462 5.55556 15.2953 5.38867Z" fill="currentColor"/>
</svg>
