<svg width="20" height="19" viewBox="0 0 20 19" fill="none" xmlns="http://www.w3.org/2000/svg">
<path fill-rule="evenodd" clip-rule="evenodd" d="M18.6957 10.3829V18.1364C18.6957 18.6133 18.305 19 17.8248 19H14.8426C14.3624 19 13.973 18.6533 13.973 18.1763L13.9726 13.6023H11.9565V18.1364C11.9565 18.6133 11.5509 19 11.0707 19H2.19C1.70979 19 1.30435 18.6133 1.30435 18.1364V10.3829C1.30435 9.90592 1.6937 9.51923 2.17392 9.51923C2.65413 9.51923 3.04348 9.90592 3.04348 10.3829V17.2727H10.2174V12.659C10.2174 12.182 10.5904 11.875 11.0707 11.875H14.8422C15.3224 11.875 15.6522 12.182 15.6522 12.659V17.2727H16.9565V10.3829C16.9565 9.90592 17.3459 9.51923 17.8261 9.51923C18.3063 9.51923 18.6957 9.90592 18.6957 10.3829ZM18.2609 6.90909H1.73914V6.00896L3.52631 4.31818H16.4737L18.2609 6.00896V6.90909ZM3.91304 2.80681H16.087V1.72726H3.91304V2.80681ZM19.7546 5.04623L17.8261 3.10542V0.863636C17.8261 0.386693 17.4241 0 16.9439 0H3.05609C2.57587 0 2.17391 0.386693 2.17391 0.863636V3.10542L0.245435 5.04623C0.0841304 5.20794 0 5.42623 0 5.6538V7.84678C0 8.32373 0.389348 8.63636 0.869565 8.63636H19.1304C19.6107 8.63636 20 8.32373 20 7.84678V5.6538C20 5.42623 19.9159 5.20794 19.7546 5.04623ZM5.86957 13.6023H7.17392V12.3068H5.86957V13.6023ZM8.69565 11.5511C8.69565 11.1338 8.355 10.7954 7.93478 10.7954H5.10869C4.68848 10.7954 4.34782 11.1338 4.34782 11.5511V14.3579C4.34782 14.7753 4.68848 15.1136 5.10869 15.1136H7.93478C8.355 15.1136 8.69565 14.7753 8.69565 14.3579V11.5511Z" fill="currentColor"/>
</svg>
